<svg width="14" height="18" viewBox="0 0 14 18" fill="none" xmlns="http://www.w3.org/2000/svg">
<path fill-rule="evenodd" clip-rule="evenodd" d="M7.77884 14.9785C10.0408 13.5996 12 10.6085 12 7.5C12 5.61193 11.3791 4.26179 10.5237 3.39189C9.66275 2.51634 8.44078 2 7 2C5.55922 2 4.33725 2.51634 3.47629 3.39189C2.62087 4.26179 2 5.61193 2 7.5C2 10.6085 3.95922 13.5996 6.22116 14.9785C6.69798 15.2692 7.30202 15.2692 7.77884 14.9785ZM8.81989 16.6862C11.6185 14.9802 14 11.3724 14 7.5C14 2.80558 10.866 0 7 0C3.13401 0 0 2.80558 0 7.5C0 11.3724 2.38154 14.9802 5.18011 16.6862C6.29624 17.3667 7.70376 17.3667 8.81989 16.6862Z" fill="black"/>
<path fill-rule="evenodd" clip-rule="evenodd" d="M7 8.5C7.82843 8.5 8.5 7.82843 8.5 7C8.5 6.17157 7.82843 5.5 7 5.5C6.17157 5.5 5.5 6.17157 5.5 7C5.5 7.82843 6.17157 8.5 7 8.5ZM7 10C8.65685 10 10 8.65685 10 7C10 5.34315 8.65685 4 7 4C5.34315 4 4 5.34315 4 7C4 8.65685 5.34315 10 7 10Z" fill="black"/>
</svg>
